<svg width="109" height="109" viewBox="0 0 109 109" fill="none" xmlns="http://www.w3.org/2000/svg">
<circle cx="54.5" cy="54.1538" r="54.1538" fill="#E7E7E7"/>
<path d="M62.6536 84.4744H45.7306C30.4152 84.4744 23.8716 77.9308 23.8716 62.6154V45.6923C23.8716 30.377 30.4152 23.8334 45.7306 23.8334H62.6536C77.969 23.8334 84.5126 30.377 84.5126 45.6923V62.6154C84.5126 77.9308 77.969 84.4744 62.6536 84.4744ZM45.7306 28.0641C32.728 28.0641 28.1024 32.6898 28.1024 45.6923V62.6154C28.1024 75.618 32.728 80.2436 45.7306 80.2436H62.6536C75.6562 80.2436 80.2818 75.618 80.2818 62.6154V45.6923C80.2818 32.6898 75.6562 28.0641 62.6536 28.0641H45.7306Z" fill="#292D32"/>
<path d="M45.731 50.6283C41.4438 50.6283 37.9746 47.1591 37.9746 42.8719C37.9746 38.5847 41.4438 35.1155 45.731 35.1155C50.0182 35.1155 53.4874 38.5847 53.4874 42.8719C53.4874 47.1591 50.0182 50.6283 45.731 50.6283ZM45.731 39.3462C43.7849 39.3462 42.2054 40.9257 42.2054 42.8719C42.2054 44.818 43.7849 46.3975 45.731 46.3975C47.6772 46.3975 49.2567 44.818 49.2567 42.8719C49.2567 40.9257 47.6772 39.3462 45.731 39.3462Z" fill="#292D32"/>
<path d="M27.8767 75.872C27.1998 75.872 26.5229 75.5335 26.128 74.9412C25.4793 73.9823 25.7331 72.6566 26.7203 72.0079L40.6254 62.672C43.6716 60.613 47.8742 60.8669 50.6383 63.2079L51.569 64.0258C52.9793 65.2387 55.3767 65.2387 56.7588 64.0258L68.4921 53.9566C71.4818 51.3899 76.1921 51.3899 79.2101 53.9566L83.8075 57.9053C84.6818 58.6669 84.7947 59.9925 84.0331 60.8951C83.2716 61.7694 81.946 61.8823 81.0434 61.1207L76.4459 57.172C75.0357 55.9592 72.6383 55.9592 71.228 57.172L59.4947 67.2412C56.5049 69.8079 51.7947 69.8079 48.7767 67.2412L47.8459 66.4233C46.5485 65.3233 44.4049 65.2105 42.9665 66.1976L29.0613 75.5335C28.6947 75.7592 28.2716 75.872 27.8767 75.872Z" fill="#292D32"/>
</svg>
