<?xml version="1.0" encoding="UTF-8"?><svg xmlns="http://www.w3.org/2000/svg" xmlns:xlink="http://www.w3.org/1999/xlink" viewBox="0 0 401 401"><defs><style>.g{fill:url(#f);}.h{fill:url(#d);}.i{fill:url(#e);}</style><linearGradient id="d" x1="149.86" y1="165.92" x2="180.94" y2="165.92" gradientTransform="matrix(1, 0, 0, 1, 0, 0)" gradientUnits="userSpaceOnUse"><stop offset="0" stop-color="#faa51f"/><stop offset="1" stop-color="#feca5a"/></linearGradient><linearGradient id="e" x1="188.7" y1="253.92" x2="219.78" y2="253.92" gradientTransform="translate(436.64) rotate(-180) scale(1 -1)" xlink:href="#d"/><linearGradient id="f" x1="0" y1="200.5" x2="401" y2="200.5" xlink:href="#d"/></defs><g id="a"/><g id="b"><g id="c"><g><path class="h" d="M180.94,135.03v61.78c-20.73-8.69-31.08-19.77-31.08-33.19,.94-3.28,1.41-5.18,1.41-5.65,2.83-11.06,12.72-18.7,29.67-22.94Z"/><path class="i" d="M216.86,223.03v61.78c20.73-8.69,31.08-19.77,31.08-33.19-.94-3.28-1.41-5.18-1.41-5.65-2.83-11.06-12.72-18.7-29.67-22.94Z"/><path class="g" d="M339.48,0H61.51C27.54,0,0,27.54,0,61.51V339.49c0,33.97,27.54,61.51,61.51,61.51H339.48c33.98,0,61.52-27.54,61.52-61.51V61.51c0-33.97-27.54-61.51-61.52-61.51Zm-90.92,314.21c-10.94,3.64-22.43,5.91-34.47,6.79v28.68h-33.15v-29.67c-16.91-2.54-31.94-8.23-45.09-17.07-17.13-12.71-27.4-26.41-30.83-41.11-1.77-6.63-2.65-14.36-2.65-23.21h55.69c4.42,11.5,9.45,18.79,15.09,21.88,2.1,1.22,4.69,2.22,7.79,2.99v-38.96c-25.31-6.18-43.21-12.76-53.71-19.72-16.8-12.27-25.19-29.06-25.19-50.39,0-31.49,15.91-53.81,47.74-66.96,10.6-3.65,20.99-6.14,31.16-7.46v-28.68h33.15v28.18c24.86,2.54,44.31,11.5,58.34,26.85,12.38,15.03,18.57,30.83,18.57,47.41h-59.01c-1.11-6.85-3.87-11.99-8.29-15.42-2.32-1.65-5.52-2.92-9.61-3.81v38.29c25.52,6.63,42.76,13.09,51.71,19.39,22.1,12.38,33.15,30.72,33.15,55.03,0,31.5-16.79,53.82-50.39,66.97Z"/></g></g></g></svg>