<svg width="161" height="160" viewBox="0 0 161 160" fill="none" xmlns="http://www.w3.org/2000/svg">
<path d="M159.268 3.60421C158.994 3.22293 158.692 2.8722 158.368 2.54346C158.354 2.52758 158.341 2.51047 158.326 2.4958C158.312 2.48236 158.296 2.47014 158.283 2.4567C156.471 0.662707 153.949 -0.3125 151.031 -0.3125C149.375 -0.3125 147.597 0.00034821 145.748 0.61749L9.62616 45.9903C2.42454 48.3916 1.11204 52.5833 0.971508 54.8673C0.829748 57.1526 1.61553 61.4738 8.46398 64.744L42.6451 81.0684L27.3485 118.841C27.3106 118.933 27.2764 119.026 27.2459 119.119C25.546 124.218 26.2303 128.803 29.1254 131.697C30.9744 133.546 33.5126 134.493 36.4346 134.493C38.0868 134.493 39.8612 134.19 41.7029 133.577C41.797 133.545 41.8886 133.512 41.9803 133.474L79.7543 118.178L96.0774 152.357C99.1973 158.889 103.31 159.866 105.484 159.866C107.425 159.866 112.223 159.02 114.831 151.195L160.205 15.0733C161.7 10.5895 161.367 6.51639 159.268 3.60421V3.60421ZM11.1207 55.4967C11.4923 55.3085 11.9786 55.1007 12.5946 54.8954L142.638 11.5464L69.2714 84.9142C66.5951 82.6632 63.7966 80.769 61.1422 79.5017L12.5078 56.2739C11.9224 55.9941 11.4666 55.7289 11.1207 55.4967V55.4967ZM38.6062 124.716C36.9869 125.235 36.0692 125.146 35.7759 125.047C35.6769 124.752 35.5877 123.836 36.1071 122.216L51.1299 85.1207L57.0972 87.9718C62.7774 90.6836 70.1378 98.0453 72.8508 103.724L75.7019 109.693L38.6062 124.716ZM105.927 148.228C105.722 148.845 105.514 149.33 105.326 149.702C105.093 149.356 104.826 148.9 104.546 148.312L81.3197 99.6792C80.0524 97.0248 78.1583 94.2275 75.9072 91.55L149.276 18.1822L105.927 148.228Z" fill="url(#paint0_linear_420_5404)"/>
<defs>
<linearGradient id="paint0_linear_420_5404" x1="-78.4869" y1="-260.923" x2="139.042" y2="142.877" gradientUnits="userSpaceOnUse">
<stop stop-color="#6CB6D2"/>
<stop offset="1" stop-color="#7FC342"/>
</linearGradient>
</defs>
</svg>
