<svg width="152" height="162" viewBox="0 0 152 162" fill="none" xmlns="http://www.w3.org/2000/svg">
<path d="M82.6892 115.121C86.1634 115.121 88.9799 112.304 88.9799 108.83C88.9799 105.356 86.1634 102.539 82.6892 102.539C79.2149 102.539 76.3984 105.356 76.3984 108.83C76.3984 112.304 79.2149 115.121 82.6892 115.121Z" fill="url(#paint0_linear_420_5385)"/>
<path d="M103.764 148.461H25.4442C18.5067 148.461 12.8627 142.817 12.8627 135.879V84.2954C12.8627 77.358 18.5067 71.714 25.4442 71.714H116.031C117.463 71.714 118.599 71.8404 119.505 72.0999C122.845 73.0567 126.328 71.1248 127.285 67.7851C128.242 64.4454 126.31 60.9622 122.971 60.005C120.922 59.4181 118.652 59.1328 116.031 59.1328H108.47V36.9473C108.47 16.5745 91.538 0 70.7257 0C49.9135 0 32.9814 16.5745 32.9814 36.9473V59.1328H25.4442C11.5693 59.1328 0.28125 70.4209 0.28125 84.2957V135.88C0.28125 149.755 11.5693 161.043 25.4442 161.043H103.764C107.238 161.043 110.054 158.226 110.054 154.752C110.054 151.278 107.238 148.461 103.764 148.461ZM45.5628 36.9473C45.5628 23.5119 56.8509 12.5815 70.7257 12.5815C84.6006 12.5815 95.8886 23.5119 95.8886 36.9473V59.1328H45.5628V36.9473Z" fill="url(#paint1_linear_420_5385)"/>
<path d="M59.0993 115.121C62.5736 115.121 65.39 112.304 65.39 108.83C65.39 105.356 62.5736 102.539 59.0993 102.539C55.625 102.539 52.8086 105.356 52.8086 108.83C52.8086 112.304 55.625 115.121 59.0993 115.121Z" fill="url(#paint2_linear_420_5385)"/>
<path d="M151.292 104.177C151.154 91.9768 141.186 82.0938 128.953 82.0938C116.635 82.0938 106.613 92.1155 106.613 104.434C106.613 107.908 109.43 110.724 112.904 110.724C116.378 110.724 119.195 107.908 119.195 104.434C119.195 99.0529 123.572 94.6752 128.954 94.6752C134.335 94.6752 138.712 99.0529 138.712 104.434C138.712 104.491 138.713 104.548 138.714 104.604C138.649 108.457 136.335 111.905 132.781 113.423C126.634 116.047 122.663 122.109 122.663 128.867V134.307C122.663 137.781 125.479 140.598 128.954 140.598C132.428 140.598 135.244 137.781 135.244 134.307V128.867C135.244 127.156 136.217 125.636 137.721 124.994C145.971 121.472 151.299 113.401 151.297 104.432C151.297 104.347 151.295 104.262 151.292 104.177Z" fill="url(#paint3_linear_420_5385)"/>
<path d="M128.927 161.042C132.402 161.042 135.218 158.226 135.218 154.752C135.218 151.277 132.402 148.461 128.927 148.461C125.453 148.461 122.637 151.277 122.637 154.752C122.637 158.226 125.453 161.042 128.927 161.042Z" fill="url(#paint4_linear_420_5385)"/>
<path d="M35.5095 115.121C38.9838 115.121 41.8002 112.304 41.8002 108.83C41.8002 105.356 38.9838 102.539 35.5095 102.539C32.0352 102.539 29.2188 105.356 29.2188 108.83C29.2188 112.304 32.0352 115.121 35.5095 115.121Z" fill="url(#paint5_linear_420_5385)"/>
<defs>
<linearGradient id="paint0_linear_420_5385" x1="70.158" y1="82.069" x2="87.2437" y2="113.787" gradientUnits="userSpaceOnUse">
<stop stop-color="#6CB6D2"/>
<stop offset="1" stop-color="#7FC342"/>
</linearGradient>
<linearGradient id="paint1_linear_420_5385" x1="-62.8342" y1="-262.016" x2="180.952" y2="95.5816" gradientUnits="userSpaceOnUse">
<stop stop-color="#6CB6D2"/>
<stop offset="1" stop-color="#7FC342"/>
</linearGradient>
<linearGradient id="paint2_linear_420_5385" x1="46.5682" y1="82.069" x2="63.6538" y2="113.787" gradientUnits="userSpaceOnUse">
<stop stop-color="#6CB6D2"/>
<stop offset="1" stop-color="#7FC342"/>
</linearGradient>
<linearGradient id="paint3_linear_420_5385" x1="84.45" y1="-13.0919" x2="174.073" y2="113.984" gradientUnits="userSpaceOnUse">
<stop stop-color="#6CB6D2"/>
<stop offset="1" stop-color="#7FC342"/>
</linearGradient>
<linearGradient id="paint4_linear_420_5385" x1="116.396" y1="127.991" x2="133.482" y2="159.709" gradientUnits="userSpaceOnUse">
<stop stop-color="#6CB6D2"/>
<stop offset="1" stop-color="#7FC342"/>
</linearGradient>
<linearGradient id="paint5_linear_420_5385" x1="22.9783" y1="82.069" x2="40.064" y2="113.787" gradientUnits="userSpaceOnUse">
<stop stop-color="#6CB6D2"/>
<stop offset="1" stop-color="#7FC342"/>
</linearGradient>
</defs>
</svg>
