<svg width="113" height="150" viewBox="0 0 113 150" fill="none" xmlns="http://www.w3.org/2000/svg">
<path fill-rule="evenodd" clip-rule="evenodd" d="M1.69588 0.45322C0.40168 1.15255 0 2.28314 0 5.22755C0 9.57999 1.32804 12.8212 4.14392 15.3419C4.97494 16.0858 5.75417 16.6943 5.87571 16.6943C5.99695 16.6943 6.17174 20.7482 6.26356 25.7033C6.49191 38.022 7.35412 42.4114 10.9692 49.654C14.0744 55.8748 16.8338 59.094 26.4844 67.7541C30.7734 71.6029 34.2826 74.8619 34.2826 74.9964C34.2826 75.1309 30.7734 78.39 26.4844 82.2388C16.8338 90.8988 14.0744 94.118 10.9692 100.339C7.35412 107.581 6.49191 111.971 6.26356 124.29C6.17174 129.244 5.99695 133.299 5.87571 133.299C5.75417 133.299 4.97494 133.907 4.14392 134.651C1.32804 137.172 0 140.413 0 144.765C0 146.539 0.144781 147.669 0.446408 148.25C1.42133 150.127 -2.71524 149.998 56.5 149.998C115.715 149.998 111.579 150.127 112.554 148.25C112.855 147.669 113 146.539 113 144.765C113 140.413 111.672 137.172 108.856 134.651C108.025 133.907 107.246 133.299 107.124 133.299C107.003 133.299 106.828 129.244 106.736 124.29C106.508 111.971 105.646 107.581 102.031 100.339C98.9256 94.118 96.1662 90.8988 86.5156 82.2388C82.2266 78.39 78.7175 75.1309 78.7175 74.9964C78.7175 74.8619 82.2266 71.6029 86.5156 67.7541C96.1662 59.094 98.9256 55.8748 102.031 49.654C105.646 42.4114 106.508 38.022 106.736 25.7033C106.828 20.7482 107.003 16.6943 107.124 16.6943C107.246 16.6943 108.025 16.0858 108.856 15.3419C111.672 12.8212 113 9.57999 113 5.22755C113 3.45417 112.855 2.32358 112.554 1.7429C111.578 -0.134781 115.725 -0.006458 56.4411 0.00643292C9.30455 0.0166871 2.39978 0.0729384 1.69588 0.45322ZM94.1667 25.316C94.1667 28.9298 94.0239 32.9178 93.8497 34.1785C92.921 40.892 90.0778 46.811 85.5178 51.5226C84.3672 52.7112 79.0462 57.6148 73.6934 62.4196C63.1923 71.8449 62.906 72.1786 62.906 74.9964C62.906 77.8143 63.1923 78.148 73.6934 87.5733C79.0462 92.3781 84.3672 97.2816 85.5178 98.4702C90.0778 103.182 92.921 109.101 93.8497 115.814C94.0239 117.075 94.1667 121.063 94.1667 124.677V131.248H90.2296H86.2926L72.4015 112.805C57.266 92.7094 57.7804 93.2807 55.4948 94.0316C54.6293 94.3161 52.5562 96.9286 40.5985 112.805L26.7074 131.248H22.7704H18.8333V124.677C18.8333 121.063 18.9761 117.075 19.1503 115.814C20.079 109.101 22.9222 103.182 27.4823 98.4702C28.6328 97.2816 33.9539 92.3781 39.3066 87.5733C49.8077 78.148 50.094 77.8143 50.094 74.9964C50.094 72.1786 49.8077 71.8449 39.3066 62.4196C33.9539 57.6148 28.6328 52.7112 27.4823 51.5226C22.9222 46.811 20.079 40.892 19.1503 34.1785C18.9761 32.9178 18.8333 28.9298 18.8333 25.316V18.7451H56.5H94.1667V25.316ZM33.6581 44.0661C32.0693 44.7596 31.4714 46.1298 31.9622 47.9524C32.1155 48.5217 52.309 67.3934 54.5519 69.0637C55.7099 69.9259 57.2901 69.9259 58.4481 69.0637C58.9348 68.701 64.1887 63.9375 70.123 58.4779C79.4696 49.8785 80.9383 48.4133 81.1066 47.52C81.3582 46.1858 80.9822 45.1783 79.9466 44.4104C79.1215 43.7986 78.9667 43.7942 56.8464 43.7298C38.5389 43.6768 34.4135 43.7365 33.6581 44.0661Z" fill="#7FC344"/>
</svg>
