<svg width="114" height="120" viewBox="0 0 114 120" fill="none" xmlns="http://www.w3.org/2000/svg">
<path d="M94.886 57.1667V62.7007C94.888 62.7837 94.8584 62.8643 94.803 62.9262C94.7477 62.988 94.6709 63.0264 94.5882 63.0336C92.8018 63.2626 91.0506 63.4718 89.2993 63.6993C88.6687 63.7871 88.0381 63.839 87.4251 63.9619C87.3121 63.9921 87.2082 64.0497 87.1228 64.1296C87.0373 64.2095 86.9728 64.3092 86.935 64.42C86.1684 67.4615 84.9398 70.3675 83.292 73.0366C83.0821 73.387 83.2042 73.5794 83.3973 73.842C84.6585 75.4879 85.9166 77.1522 87.1625 78.7805C87.3298 78.9987 87.4115 79.2706 87.3921 79.5448C87.3727 79.8191 87.2536 80.0768 87.0572 80.2692L79.9291 87.3972C79.7346 87.5911 79.4757 87.7072 79.2015 87.7233C78.9272 87.7395 78.6565 87.6548 78.4405 87.485C76.8297 86.2414 75.2005 84.981 73.6065 83.7023C73.4729 83.5546 73.288 83.4634 73.0895 83.4471C72.891 83.4308 72.6937 83.4906 72.5378 83.6145C69.939 85.1751 67.1157 86.3268 64.1669 87.0292C63.9881 87.0492 63.8236 87.1363 63.7065 87.2729C63.5895 87.4095 63.5287 87.5855 63.5363 87.7652C63.2913 89.6913 63.0287 91.6181 62.7661 93.5618C62.7154 93.9209 62.537 94.2498 62.2636 94.4882C61.9902 94.7265 61.6401 94.8584 61.2774 94.8596H51.8385C51.4734 94.8578 51.1213 94.7237 50.8476 94.4821C50.5738 94.2405 50.397 93.9078 50.3499 93.5457C50.227 92.5121 50.0873 91.4968 49.9682 90.4631C49.8453 89.4646 49.7391 88.4667 49.5651 87.4858C49.5348 87.3727 49.4773 87.2689 49.3974 87.1834C49.3175 87.0979 49.2178 87.0334 49.107 86.9956C46.1482 86.2473 43.3158 85.0671 40.7011 83.4931C40.3682 83.2832 40.1934 83.4404 39.9651 83.616C38.2665 84.9466 36.5679 86.2605 34.8686 87.5911C34.6952 87.7254 34.4789 87.7923 34.2599 87.7794C34.041 87.7664 33.8341 87.6746 33.6776 87.5209L26.2519 80.0951C26.0994 79.9387 26.0069 79.7335 25.9909 79.5157C25.9748 79.2978 26.0362 79.0813 26.1641 78.9042C27.4077 77.2758 28.6513 75.6116 29.9293 73.9832C30.0931 73.8207 30.1895 73.6023 30.1993 73.3718C30.209 73.1412 30.1314 72.9155 29.982 72.7397C28.4234 70.1937 27.2648 67.4235 26.5466 64.526C26.5328 64.3574 26.4572 64.1998 26.3343 64.0835C26.2115 63.9671 26.05 63.9002 25.8809 63.8955C23.6914 63.6329 21.5203 63.3527 19.2957 63.0725C19.0774 63.0469 18.8762 62.9416 18.7308 62.7767C18.5853 62.6119 18.506 62.3991 18.5078 62.1793V57.7515C18.5088 57.515 18.6033 57.2883 18.7705 57.1211C18.9378 56.9538 19.1644 56.8593 19.401 56.8583H35.3732C35.5137 58.0668 35.6022 59.2753 35.7938 60.4838C36.6558 65.4127 39.221 69.8825 43.0417 73.1134C46.8625 76.3443 51.6963 78.1313 56.6999 78.1625C61.7035 78.1938 66.5592 76.4674 70.42 73.2844C74.2808 70.1015 76.9016 65.6641 77.8252 60.7464C78.013 59.6281 78.13 58.4991 78.1756 57.366C78.2107 56.9843 78.2809 56.7881 78.7359 56.7881C84.0076 56.8054 89.279 56.8113 94.5501 56.8057C94.6402 56.8153 94.7237 56.8572 94.7854 56.9235C94.8471 56.9898 94.8828 57.0762 94.886 57.1667Z" fill="url(#paint0_linear_199_4535)"/>
<path d="M73.5374 51.408C73.3292 50.2243 72.7916 49.1234 71.9863 48.2312C71.181 47.3391 70.1406 46.692 68.9844 46.3641C66.9354 45.6984 64.8688 45.0663 62.8198 44.4029C62.3298 44.2628 61.8915 43.9826 61.5585 43.5967C61.2256 43.2109 61.0126 42.7362 60.9457 42.231C60.8227 41.4782 60.7708 40.7248 60.7166 39.9545C60.7108 39.8584 60.7249 39.7622 60.758 39.6718C60.7911 39.5814 60.8425 39.4988 60.909 39.4293C62.3874 38.1029 63.5231 36.4387 64.2192 34.5785C65.5409 31.5638 65.9783 28.2355 65.4803 24.9816C65.0871 22.9604 64.008 21.1369 62.4256 19.8194C60.8431 18.5018 58.8543 17.771 56.7953 17.7504C54.7362 17.7299 52.7333 18.4208 51.1248 19.7065C49.5164 20.9922 48.4011 22.7938 47.9676 24.8068C47.6553 26.5335 47.6672 28.3032 48.0027 30.0255C48.4608 33.0731 49.3685 36.0153 51.5053 38.3093C51.9684 38.7305 52.3126 39.2662 52.5032 39.8625C52.6937 40.4588 52.724 41.0948 52.5908 41.7065C52.3282 43.2479 51.8205 44.0357 50.3319 44.5082C48.2829 45.1564 46.2163 45.7694 44.1673 46.4695C42.5203 47.0842 41.1673 48.3002 40.3808 49.8725C39.5944 51.4448 39.4329 53.2567 39.9288 54.9434H54.4658C54.4833 54.6808 54.5185 54.4006 54.536 54.1204C54.6238 52.9997 54.7284 51.879 54.8162 50.7614C54.8864 49.9033 54.9567 49.0452 55.0261 48.1658C55.0437 48.0085 55.0964 47.9734 55.2361 47.9734H58.0378C58.1951 47.9734 58.2477 48.0261 58.2668 48.1833C58.4241 50.127 58.5821 52.0714 58.7569 54.0151C58.7745 54.3303 58.8096 54.6258 58.8447 54.9434H73.5909C73.6698 53.7654 73.652 52.583 73.5374 51.408ZM58.4065 46.2236C58.3714 46.3985 58.2836 46.4527 58.1088 46.4527C57.1281 46.4354 56.1473 46.4354 55.1666 46.4527C54.9918 46.4527 54.904 46.4 54.8689 46.2236C54.6399 45.2778 54.3963 44.3319 54.1681 43.3868H59.1066C58.8791 44.3327 58.634 45.2785 58.4065 46.2236Z" fill="url(#paint1_linear_199_4535)"/>
<path d="M92.7851 51.8811C92.5936 50.9045 92.1357 50 91.4621 49.2674C90.7884 48.5349 89.9252 48.0029 88.9681 47.7305C87.2885 47.1701 85.609 46.6449 83.9242 46.1365C83.4286 46.0254 82.9834 45.7542 82.6573 45.3648C82.3312 44.9754 82.1425 44.4895 82.1203 43.9821C82.0851 43.4569 81.9806 42.9133 81.963 42.3881C81.964 42.1735 82.0457 41.9672 82.192 41.8102C83.6474 40.431 84.7112 38.6906 85.2747 36.7663C86.1252 34.4616 86.3666 31.9765 85.9755 29.5513C85.6305 27.8909 84.7386 26.3942 83.4424 25.3007C82.1462 24.2072 80.5207 23.58 78.826 23.5195C77.1312 23.459 75.4651 23.9686 74.0943 24.9669C72.7234 25.9652 71.727 27.3945 71.2645 29.026C70.8824 30.6535 70.8584 32.3445 71.1942 33.9821C71.6141 36.7144 72.492 39.2711 74.4693 41.2849C74.7524 41.5205 74.9634 41.8311 75.078 42.1811C75.1927 42.5311 75.2063 42.9063 75.1174 43.2637C75.0827 43.4012 75.065 43.5425 75.0648 43.6844C75.088 44.2133 74.9382 44.7355 74.638 45.1716C74.3379 45.6078 73.9037 45.9341 73.4013 46.1013C74.3549 47.0043 75.0974 48.1066 75.5758 49.3297C76.0542 50.5527 76.2566 51.8663 76.1687 53.1767C76.1335 53.7546 76.1687 54.35 76.1687 54.9279H78.0429C78.0604 54.6478 78.0955 54.3676 78.1131 54.0882C78.1657 53.3698 78.236 52.6522 78.2879 51.9163C78.3406 51.3559 78.3757 50.8131 78.4284 50.2528C78.4284 50.165 78.481 50.1299 78.5681 50.1299H80.372C80.4774 50.1299 80.5125 50.165 80.5125 50.2704C80.6178 51.514 80.7224 52.7576 80.8278 54.018C80.8629 54.3157 80.8805 54.6287 80.9156 54.9287H92.8417C92.9111 53.9131 92.8921 52.8935 92.7851 51.8811ZM80.5965 48.9916C80.5884 49.0352 80.564 49.074 80.5282 49.1001C80.4925 49.1263 80.4481 49.1377 80.4041 49.1321H78.5123C78.3894 49.1321 78.3375 49.097 78.32 48.9916C78.1795 48.3809 78.0222 47.7656 77.8619 47.1701H81.0316C80.8942 47.7831 80.7362 48.3786 80.5965 48.9916Z" fill="url(#paint2_linear_199_4535)"/>
<path d="M38.2313 44.4033C38.1786 44.0216 38.1786 43.6155 38.1084 43.2475C38.0237 42.9645 38.0324 42.6617 38.1334 42.3841C38.2343 42.1064 38.422 41.8687 38.6687 41.7061C38.9418 41.4883 39.1784 41.2283 39.3695 40.9359C41.3954 38.1488 42.3862 34.7427 42.1713 31.3038C42.1003 29.5447 41.4084 27.8676 40.2184 26.5701C39.0285 25.2726 37.4173 24.4385 35.6709 24.216C33.9244 23.9935 32.1556 24.3968 30.6782 25.3544C29.2009 26.3121 28.1106 27.7621 27.6007 29.4472C27.2511 30.7845 27.1797 32.1793 27.3908 33.5452C27.7061 36.4172 28.4596 39.167 30.4727 41.3038C30.8355 41.6563 31.1028 42.0951 31.2497 42.5792C31.3965 43.0632 31.4181 43.5765 31.3124 44.0712C31.2855 44.6179 31.0812 45.1409 30.7305 45.5611C30.3798 45.9814 29.9018 46.276 29.3688 46.4004C27.7572 46.8729 26.1464 47.3814 24.5524 47.9066C21.4529 48.9395 20.1742 51.7069 20.717 54.9819H33.221C33.2385 54.7193 33.2561 54.4567 33.2912 54.2117C33.3439 53.4933 33.4141 52.7612 33.466 52.0397C33.5187 51.4794 33.5538 50.9366 33.6065 50.3762C33.6065 50.2884 33.6592 50.2533 33.747 50.2533H35.5547C35.6601 50.2533 35.6952 50.2885 35.6952 50.3938C35.8006 51.6374 35.9051 52.8978 36.0105 54.1414C36.0281 54.4216 36.0632 54.7018 36.0807 54.9812H37.3419C37.0266 51.7748 37.4472 48.7815 39.9161 46.347C39.4814 46.2133 39.093 45.9603 38.7951 45.6166C38.4972 45.273 38.3019 44.8525 38.2313 44.4033ZM35.7792 49.0792C35.7441 49.2021 35.709 49.2197 35.5868 49.2197H33.6951C33.5722 49.2197 33.5202 49.1845 33.5027 49.0792C33.3622 48.4685 33.2049 47.8532 33.0446 47.2577H36.2143C36.0777 47.8532 35.9196 48.4662 35.7799 49.0792H35.7792Z" fill="url(#paint3_linear_199_4535)"/>
<path d="M17.7046 40.6377C16.0762 40.6377 14.3456 39.2544 14.4822 37.6253C14.951 31.7003 16.7982 25.967 19.8765 20.8828L25.0952 23.7899C22.4687 28.13 20.8916 33.0233 20.4895 38.0803C20.4261 38.7764 20.1058 39.424 19.5909 39.8968C19.0761 40.3696 18.4036 40.6337 17.7046 40.6377Z" fill="url(#paint4_linear_199_4535)"/>
<path d="M54.6221 3.22997C54.6221 1.6016 53.2388 -0.129052 51.6096 0.00759959C45.6847 0.476417 39.9514 2.32365 34.8672 5.40188L37.7743 10.6206C42.1143 7.9941 47.0076 6.41702 52.0646 6.0149C52.7628 5.95697 53.4137 5.63826 53.8876 5.12221C54.3615 4.60616 54.6237 3.9306 54.6221 3.22997Z" fill="url(#paint5_linear_199_4535)"/>
<path d="M28.2815 6.33127C29.2851 6.30219 30.2843 6.4752 31.2197 6.84001C32.155 7.20483 33.0075 7.75399 33.7264 8.45485C34.4453 9.15571 35.0159 9.99397 35.4043 10.9198C35.7927 11.8456 35.991 12.84 35.9875 13.844C36.0577 18.1695 32.0467 22.3027 27.7739 22.3179C23.7461 22.3355 19.9977 18.4123 19.9107 14.1219C19.858 9.83305 23.5881 6.36562 28.2815 6.33127Z" fill="url(#paint6_linear_199_4535)"/>
<path d="M58.1778 3.47509C58.1778 1.84672 59.5611 0.116066 61.1902 0.252717C67.1152 0.721534 72.8485 2.56876 77.9327 5.647L75.0256 10.8657C70.6856 8.2392 65.7923 6.66212 60.7353 6.26003C60.0358 6.20522 59.3831 5.88745 58.9086 5.37072C58.4341 4.85398 58.173 4.17664 58.1778 3.47509Z" fill="url(#paint7_linear_199_4535)"/>
<path d="M95.5684 40.3926C97.1967 40.3926 98.9274 39.0093 98.7908 37.3801C98.3219 31.4552 96.4747 25.7219 93.3964 20.6377L88.1777 23.5448C90.8042 27.8848 92.3813 32.7781 92.7834 37.8351C92.8438 38.5324 93.1632 39.1819 93.6787 39.6553C94.1942 40.1287 94.8685 40.3917 95.5684 40.3926Z" fill="url(#paint8_linear_199_4535)"/>
<path d="M92.4848 14.0701C92.5137 15.0737 92.3407 16.0728 91.9758 17.0081C91.611 17.9435 91.0618 18.7959 90.361 19.5147C89.6601 20.2336 88.8219 20.8042 87.8961 21.1927C86.9704 21.5812 85.9759 21.7795 84.972 21.7761C80.6465 21.8463 76.5134 17.8353 76.4981 13.5625C76.4805 9.5347 80.4037 5.7871 84.6941 5.6993C88.9646 5.62602 92.4512 9.35911 92.4848 14.0701Z" fill="url(#paint9_linear_199_4535)"/>
<path d="M0 118.606V104.192H3.34528V118.606H0Z" fill="#7FC243"/>
<path d="M18.5452 119.008L9.8942 111.005V118.623H6.61914V103.877H6.89932L15.5511 111.969V104.21H18.8437V119.025H18.546L18.5452 119.008Z" fill="#7FC243"/>
<path d="M26.3403 118.815C25.185 118.816 24.0434 118.566 22.995 118.08C21.9779 117.639 21.113 116.908 20.5078 115.979L22.6797 113.93C23.1404 114.498 23.7203 114.958 24.3783 115.278C25.0162 115.636 25.7313 115.834 26.4624 115.856C27.002 115.88 27.5386 115.765 28.0213 115.523C28.2092 115.447 28.3699 115.316 28.4823 115.147C28.5948 114.978 28.6539 114.78 28.6519 114.577C28.6493 114.425 28.6076 114.275 28.5309 114.144C28.4542 114.012 28.345 113.902 28.2137 113.824C27.8142 113.582 27.3842 113.393 26.935 113.264L24.0455 112.371C23.1708 112.088 22.3858 111.581 21.769 110.9C21.172 110.225 20.8574 109.346 20.8903 108.445C20.8786 107.815 21.0246 107.191 21.3151 106.631C21.6056 106.071 22.0314 105.593 22.5538 105.239C23.6493 104.433 24.9763 104.003 26.3365 104.013C28.7183 104.013 30.5047 104.766 31.6804 106.289L29.2985 108.251C28.9495 107.827 28.4969 107.501 27.9847 107.305C27.4762 107.084 26.9275 106.971 26.3731 106.972C25.9141 106.97 25.462 107.084 25.0593 107.305C24.8641 107.383 24.6973 107.518 24.5815 107.694C24.4656 107.869 24.4062 108.076 24.4112 108.286C24.4135 108.513 24.5009 108.731 24.6562 108.896C24.7951 109.056 24.9688 109.182 25.1639 109.264C25.3387 109.335 25.567 109.422 25.8647 109.527L28.9298 110.473C29.8568 110.74 30.6967 111.248 31.3643 111.944C31.9225 112.556 32.2289 113.357 32.2224 114.185C32.2175 114.825 32.0648 115.455 31.7762 116.026C31.4877 116.598 31.0711 117.094 30.5589 117.478C29.3456 118.39 27.8576 118.862 26.3403 118.815Z" fill="#7FC243"/>
<path d="M33.9746 118.606V104.192H37.3199V118.606H33.9746Z" fill="#7FC243"/>
<path d="M51.8027 116.679C51.1413 117.377 50.3419 117.928 49.4555 118.299C48.569 118.67 47.615 118.852 46.6542 118.834C44.6857 118.821 42.8018 118.032 41.4115 116.638C40.0212 115.245 39.2367 113.359 39.2285 111.391C39.2309 109.427 40.0119 107.545 41.4001 106.157C42.7883 104.769 44.6704 103.988 46.6336 103.985C47.9382 103.98 49.2203 104.325 50.3461 104.984C51.4772 105.636 52.4188 106.572 53.0784 107.699L50.0484 109.362C49.7037 108.758 49.2169 108.247 48.63 107.873C47.8868 107.417 47.0093 107.231 46.1449 107.346C45.2806 107.461 44.4821 107.87 43.8838 108.504C43.1395 109.28 42.7306 110.318 42.7456 111.394C42.7172 112.499 43.1189 113.573 43.8662 114.388C44.2135 114.783 44.6426 115.097 45.1235 115.309C45.6045 115.52 46.1258 115.625 46.6512 115.614C47.5098 115.637 48.3523 115.379 49.0506 114.879C49.7106 114.415 50.1735 113.722 50.3484 112.935H46.6535V110.532H53.9212V111.408C53.9361 112.383 53.7565 113.352 53.3927 114.257C53.029 115.162 52.4885 115.986 51.8027 116.679Z" fill="#7FC243"/>
<path d="M67.7054 119.008L59.0544 111.005V118.623H55.7793V103.877H56.0595L64.7113 111.969V104.21H68.0214V119.025H67.7062L67.7054 119.008Z" fill="#7FC243"/>
<path d="M70.7344 118.606V104.192H74.0797V118.606H70.7344Z" fill="#7FC243"/>
<path d="M74.6582 118.605L81.5411 103.842H81.9992L88.8821 118.605H85.1345L84.4337 116.889H79.1097L78.4088 118.605H74.6582ZM80.1548 114.178H83.342L81.748 110.43L80.1548 114.178Z" fill="url(#paint10_linear_199_4535)"/>
<path d="M89.7363 118.606V104.192H96.0238C97.2394 104.197 98.4039 104.681 99.2635 105.541C100.123 106.4 100.608 107.565 100.612 108.781C100.608 109.996 100.123 111.161 99.2635 112.02C98.4039 112.88 97.2394 113.364 96.0238 113.369H93.0954V118.605L89.7363 118.606ZM93.0954 110.2H95.7047C96.0809 110.2 96.4417 110.05 96.7077 109.784C96.9737 109.518 97.1231 109.157 97.1231 108.781C97.1231 108.405 96.9737 108.044 96.7077 107.778C96.4417 107.512 96.0809 107.363 95.7047 107.363H93.0954V110.2Z" fill="#6CB6D2"/>
<path d="M102.398 118.606V104.192H108.686C109.901 104.197 111.066 104.681 111.926 105.541C112.785 106.4 113.27 107.565 113.274 108.781C113.27 109.996 112.785 111.161 111.926 112.02C111.066 112.88 109.901 113.364 108.686 113.369H105.757V118.605L102.398 118.606ZM105.757 110.2H108.367C108.743 110.2 109.104 110.05 109.37 109.784C109.636 109.518 109.785 109.157 109.785 108.781C109.785 108.405 109.636 108.044 109.37 107.778C109.104 107.512 108.743 107.363 108.367 107.363H105.757V110.2Z" fill="#6CB6D2"/>
<defs>
<linearGradient id="paint0_linear_199_4535" x1="-19.3758" y1="-5.15424" x2="11.6372" y2="110.347" gradientUnits="userSpaceOnUse">
<stop stop-color="#6CB6D2"/>
<stop offset="1" stop-color="#7FC342"/>
</linearGradient>
<linearGradient id="paint1_linear_199_4535" x1="-8.62313" y1="-17.9556" x2="103.399" y2="68.6807" gradientUnits="userSpaceOnUse">
<stop stop-color="#6CB6D2"/>
<stop offset="1" stop-color="#7FC342"/>
</linearGradient>
<linearGradient id="paint2_linear_199_4535" x1="3.21511" y1="-30.7688" x2="126.147" y2="24.6722" gradientUnits="userSpaceOnUse">
<stop stop-color="#6CB6D2"/>
<stop offset="1" stop-color="#7FC342"/>
</linearGradient>
<linearGradient id="paint3_linear_199_4535" x1="-19.891" y1="-5.80632" x2="103.067" y2="50.0341" gradientUnits="userSpaceOnUse">
<stop stop-color="#6CB6D2"/>
<stop offset="1" stop-color="#7FC342"/>
</linearGradient>
<linearGradient id="paint4_linear_199_4535" x1="-19.5643" y1="-5.09485" x2="101.941" y2="27.4141" gradientUnits="userSpaceOnUse">
<stop stop-color="#6CB6D2"/>
<stop offset="1" stop-color="#7FC342"/>
</linearGradient>
<linearGradient id="paint5_linear_199_4535" x1="5.1361" y1="-31.798" x2="41.9035" y2="85.9161" gradientUnits="userSpaceOnUse">
<stop stop-color="#6CB6D2"/>
<stop offset="1" stop-color="#7FC342"/>
</linearGradient>
<linearGradient id="paint6_linear_199_4535" x1="-7.18162" y1="-18.4722" x2="96.6481" y2="78.6932" gradientUnits="userSpaceOnUse">
<stop stop-color="#6CB6D2"/>
<stop offset="1" stop-color="#7FC342"/>
</linearGradient>
<linearGradient id="paint7_linear_199_4535" x1="15.7441" y1="-43.2462" x2="52.5022" y2="74.4609" gradientUnits="userSpaceOnUse">
<stop stop-color="#6CB6D2"/>
<stop offset="1" stop-color="#7FC342"/>
</linearGradient>
<linearGradient id="paint8_linear_199_4535" x1="15.0547" y1="-42.4989" x2="136.561" y2="-9.98968" gradientUnits="userSpaceOnUse">
<stop stop-color="#6CB6D2"/>
<stop offset="1" stop-color="#7FC342"/>
</linearGradient>
<linearGradient id="paint9_linear_199_4535" x1="19.1585" y1="-46.9435" x2="124.055" y2="49.0779" gradientUnits="userSpaceOnUse">
<stop stop-color="#6CB6D2"/>
<stop offset="1" stop-color="#7FC342"/>
</linearGradient>
<linearGradient id="paint10_linear_199_4535" x1="88.555" y1="111.297" x2="78.1288" y2="111.229" gradientUnits="userSpaceOnUse">
<stop stop-color="#6CB6D2"/>
<stop offset="1" stop-color="#7FC342"/>
</linearGradient>
</defs>
</svg>
