<svg width="192" height="202" viewBox="0 0 192 202" fill="none" xmlns="http://www.w3.org/2000/svg">
<path d="M160.354 96.6111V105.964C160.358 106.104 160.308 106.24 160.214 106.344C160.121 106.449 159.991 106.514 159.851 106.526C156.832 106.913 153.872 107.267 150.913 107.651C149.847 107.799 148.781 107.887 147.745 108.095C147.554 108.146 147.379 108.243 147.235 108.378C147.09 108.513 146.981 108.682 146.917 108.869C145.622 114.009 143.545 118.92 140.761 123.431C140.406 124.023 140.612 124.348 140.939 124.792C143.07 127.574 145.196 130.386 147.302 133.138C147.584 133.507 147.722 133.966 147.69 134.43C147.657 134.893 147.456 135.329 147.124 135.654L135.077 147.7C134.749 148.028 134.311 148.224 133.848 148.252C133.384 148.279 132.927 148.136 132.562 147.849C129.839 145.747 127.086 143.617 124.392 141.456C124.166 141.206 123.854 141.052 123.518 141.025C123.183 140.997 122.85 141.098 122.586 141.308C118.194 143.945 113.423 145.891 108.439 147.078C108.137 147.112 107.859 147.259 107.661 147.49C107.463 147.721 107.361 148.018 107.374 148.322C106.96 151.577 106.516 154.834 106.072 158.118C105.986 158.725 105.685 159.281 105.223 159.684C104.761 160.087 104.169 160.31 103.556 160.312H87.6045C86.9874 160.309 86.3924 160.082 85.9298 159.674C85.4671 159.265 85.1683 158.703 85.0887 158.091C84.8809 156.344 84.6448 154.629 84.4436 152.882C84.2359 151.194 84.0565 149.508 83.7624 147.85C83.7113 147.659 83.614 147.483 83.479 147.339C83.3439 147.195 83.1754 147.086 82.9883 147.022C77.9879 145.757 73.2012 143.763 68.7823 141.102C68.2198 140.748 67.9243 141.013 67.5386 141.31C64.6679 143.559 61.7973 145.779 58.9254 148.028C58.6323 148.255 58.2669 148.368 57.8968 148.346C57.5268 148.324 57.1771 148.169 56.9127 147.909L44.3633 135.36C44.1056 135.096 43.9493 134.749 43.9222 134.381C43.8951 134.012 43.9987 133.646 44.215 133.347C46.3167 130.595 48.4183 127.783 50.5781 125.031C50.8549 124.756 51.0178 124.387 51.0343 123.997C51.0508 123.608 50.9197 123.226 50.6671 122.929C48.0331 118.626 46.0751 113.945 44.8614 109.048C44.838 108.763 44.7102 108.497 44.5026 108.3C44.295 108.104 44.0222 107.991 43.7363 107.983C40.0361 107.539 36.3669 107.065 32.6074 106.592C32.2384 106.549 31.8984 106.371 31.6527 106.092C31.4069 105.813 31.2728 105.454 31.2759 105.082V97.5994C31.2776 97.1996 31.4372 96.8166 31.7199 96.5339C32.0026 96.2512 32.3856 96.0916 32.7854 96.0899H59.7782C60.0156 98.1322 60.1653 100.175 60.4891 102.217C61.9459 110.547 66.281 118.101 72.738 123.561C79.195 129.021 87.364 132.041 95.8201 132.094C104.276 132.147 112.482 129.229 119.007 123.85C125.532 118.471 129.961 110.972 131.522 102.661C131.839 100.771 132.037 98.8627 132.114 96.9479C132.173 96.3028 132.292 95.9712 133.061 95.9712C141.97 96.0004 150.878 96.0103 159.787 96.0009C159.939 96.0172 160.08 96.0879 160.184 96.2C160.289 96.3121 160.349 96.4581 160.354 96.6111Z" fill="url(#paint0_linear_438_5841)"/>
<path d="M124.276 86.8795C123.924 84.8792 123.015 83.0185 121.655 81.5109C120.294 80.0032 118.535 78.9096 116.581 78.3554C113.119 77.2304 109.626 76.1622 106.163 75.041C105.335 74.8042 104.594 74.3307 104.032 73.6786C103.469 73.0265 103.109 72.2243 102.996 71.3705C102.788 70.0984 102.7 68.825 102.609 67.5232C102.599 67.3609 102.623 67.1982 102.679 67.0455C102.735 66.8927 102.822 66.7532 102.934 66.6356C105.432 64.3941 107.352 61.5816 108.528 58.4379C110.762 53.3431 111.501 47.7182 110.659 42.2192C109.995 38.8034 108.171 35.7217 105.497 33.4951C102.823 31.2684 99.4616 30.0334 95.9818 29.9986C92.5021 29.9639 89.117 31.1316 86.3988 33.3044C83.6805 35.4772 81.7958 38.5219 81.0631 41.9238C80.5353 44.8419 80.5554 47.8327 81.1224 50.7434C81.8965 55.8937 83.4306 60.866 87.0417 64.7429C87.8245 65.4547 88.4061 66.36 88.7281 67.3678C89.0502 68.3756 89.1013 69.4504 88.8763 70.4842C88.4325 73.089 87.5745 74.4204 85.0587 75.2191C81.5959 76.3144 78.1035 77.3504 74.6407 78.5335C71.8572 79.5724 69.5706 81.6274 68.2415 84.2846C66.9125 86.9418 66.6395 90.0039 67.4777 92.8543H92.045C92.0746 92.4105 92.134 91.937 92.1637 91.4635C92.3121 89.5695 92.4888 87.6756 92.6372 85.7868C92.7559 84.3367 92.8746 82.8865 92.992 81.4002C93.0216 81.1345 93.1107 81.0751 93.3468 81.0751H98.0817C98.3474 81.0751 98.4365 81.1641 98.4687 81.4299C98.7345 84.7147 99.0015 88.0007 99.297 91.2855C99.3267 91.8183 99.386 92.3176 99.4453 92.8543H124.366C124.5 90.8636 124.469 88.8653 124.276 86.8795ZM98.7048 78.1181C98.6455 78.4135 98.4971 78.5051 98.2016 78.5051C96.5442 78.4758 94.8868 78.4758 93.2293 78.5051C92.9339 78.5051 92.7855 78.4161 92.7262 78.1181C92.3392 76.5195 91.9276 74.921 91.5418 73.3238H99.8879C99.5034 74.9223 99.0893 76.5208 98.7048 78.1181Z" fill="url(#paint1_linear_438_5841)"/>
<path d="M156.804 87.6793C156.481 86.0289 155.707 84.5001 154.568 83.2621C153.43 82.0242 151.971 81.1252 150.354 80.6647C147.515 79.7177 144.677 78.8301 141.83 77.9709C140.992 77.7832 140.24 77.3249 139.689 76.6668C139.137 76.0087 138.819 75.1875 138.781 74.33C138.722 73.4423 138.545 72.5238 138.515 71.6361C138.517 71.2735 138.655 70.9248 138.902 70.6595C141.362 68.3287 143.16 65.3874 144.112 62.1354C145.549 58.2405 145.957 54.0407 145.296 49.942C144.713 47.136 143.206 44.6067 141.015 42.7586C138.825 40.9105 136.078 39.8506 133.214 39.7484C130.349 39.6461 127.534 40.5074 125.217 42.1945C122.9 43.8817 121.216 46.2971 120.435 49.0544C119.789 51.8048 119.749 54.6626 120.316 57.4301C121.026 62.0476 122.509 66.3684 125.851 69.7718C126.329 70.1699 126.686 70.6948 126.88 71.2863C127.073 71.8778 127.096 72.512 126.946 73.116C126.887 73.3484 126.858 73.5871 126.857 73.8268C126.897 74.7208 126.643 75.6032 126.136 76.3403C125.629 77.0774 124.895 77.6289 124.046 77.9115C125.658 79.4375 126.912 81.3004 127.721 83.3674C128.529 85.4343 128.871 87.6543 128.723 89.8687C128.663 90.8454 128.723 91.8517 128.723 92.8284H131.89C131.92 92.3549 131.979 91.8814 132.009 91.4092C132.098 90.1951 132.217 88.9824 132.304 87.7387C132.393 86.7917 132.453 85.8744 132.542 84.9274C132.542 84.779 132.631 84.7197 132.778 84.7197H135.826C136.004 84.7197 136.064 84.7791 136.064 84.9571C136.242 87.0588 136.419 89.1605 136.597 91.2905C136.656 91.7937 136.686 92.3226 136.745 92.8297H156.9C157.017 91.1134 156.985 89.3901 156.804 87.6793ZM136.206 82.7961C136.192 82.8697 136.151 82.9353 136.09 82.9795C136.03 83.0236 135.955 83.0429 135.881 83.0334H132.684C132.476 83.0334 132.388 82.9741 132.358 82.7961C132.121 81.7639 131.855 80.7241 131.584 79.7177H136.941C136.709 80.7537 136.442 81.7601 136.206 82.7961Z" fill="url(#paint2_linear_438_5841)"/>
<path d="M64.6091 75.041C64.5201 74.3959 64.5201 73.7096 64.4014 73.0877C64.2583 72.6094 64.2731 72.0977 64.4437 71.6285C64.6143 71.1593 64.9315 70.7576 65.3484 70.4829C65.8099 70.1147 66.2097 69.6753 66.5328 69.1811C69.9565 64.4711 71.6309 58.7147 71.2677 52.9031C71.1477 49.9301 69.9785 47.0959 67.9674 44.9031C65.9564 42.7103 63.2335 41.3008 60.2821 40.9247C57.3306 40.5486 54.3413 41.2302 51.8446 42.8486C49.3479 44.467 47.5053 46.9176 46.6436 49.7654C46.0528 52.0254 45.932 54.3825 46.2888 56.691C46.8216 61.5446 48.095 66.1918 51.4972 69.8029C52.1103 70.3986 52.562 71.1402 52.8103 71.9582C53.0585 72.7762 53.095 73.6438 52.9164 74.4798C52.8708 75.4037 52.5255 76.2876 51.9329 76.9978C51.3402 77.708 50.5324 78.2059 49.6316 78.4161C46.9081 79.2147 44.1858 80.074 41.492 80.9616C36.2539 82.7072 34.0929 87.384 35.0102 92.9188H56.1418C56.1715 92.475 56.2011 92.0312 56.2605 91.6171C56.3495 90.403 56.4682 89.1657 56.5559 87.9465C56.6449 86.9996 56.7043 86.0822 56.7933 85.1352C56.7933 84.9869 56.8823 84.9276 57.0307 84.9276H60.0858C60.2638 84.9276 60.3232 84.9869 60.3232 85.1649C60.5013 87.2666 60.678 89.3967 60.856 91.4983C60.8857 91.9718 60.9451 92.4453 60.9747 92.9175H63.1061C62.5732 87.4988 63.2841 82.4401 67.4565 78.3258C66.7219 78.0999 66.0654 77.6723 65.562 77.0915C65.0586 76.5108 64.7284 75.8003 64.6091 75.041ZM60.4651 82.9432C60.4058 83.151 60.3464 83.1807 60.14 83.1807H56.943C56.7353 83.1807 56.6475 83.1213 56.6178 82.9432C56.3805 81.9111 56.1147 80.8713 55.8437 79.8649H61.2005C60.9696 80.8713 60.7025 81.9072 60.4664 82.9432H60.4651Z" fill="url(#paint3_linear_438_5841)"/>
<path d="M29.9166 68.678C27.1647 68.678 24.2399 66.3402 24.4709 63.587C25.2631 53.5739 28.3849 43.8847 33.5871 35.2924L42.4067 40.2053C37.9679 47.54 35.3027 55.8097 34.6231 64.356C34.5161 65.5324 33.9747 66.6268 33.1046 67.4259C32.2345 68.2249 31.0979 68.6713 29.9166 68.678Z" fill="url(#paint4_linear_438_5841)"/>
<path d="M92.3084 5.45862C92.3084 2.7067 89.9707 -0.218096 87.2174 0.0128432C77.2044 0.80514 67.5151 3.92694 58.9229 9.12914L63.8358 17.9487C71.1705 13.51 79.4401 10.8447 87.9863 10.1651C89.1664 10.0672 90.2663 9.52861 91.0671 8.65649C91.868 7.78436 92.3112 6.64268 92.3084 5.45862Z" fill="url(#paint5_linear_438_5841)"/>
<path d="M47.7926 10.6993C49.4886 10.6501 51.1772 10.9425 52.758 11.5591C54.3387 12.1756 55.7794 13.1037 56.9943 14.2881C58.2092 15.4726 59.1736 16.8892 59.83 18.4538C60.4865 20.0184 60.8216 21.6991 60.8155 23.3958C60.9342 30.7059 54.1557 37.6908 46.9346 37.7166C40.1277 37.7463 33.793 31.1161 33.646 23.8654C33.5569 16.6173 39.8607 10.7573 47.7926 10.6993Z" fill="url(#paint6_linear_438_5841)"/>
<path d="M98.318 5.87256C98.318 3.12064 100.656 0.195844 103.409 0.426784C113.422 1.21908 123.111 4.34088 131.704 9.54308L126.791 18.3627C119.456 13.9239 111.186 11.2586 102.64 10.5791C101.458 10.4865 100.355 9.94944 99.553 9.07616C98.7511 8.20287 98.3098 7.05817 98.318 5.87256Z" fill="url(#paint7_linear_438_5841)"/>
<path d="M161.508 68.2638C164.26 68.2638 167.185 65.9261 166.954 63.1729C166.162 53.1598 163.04 43.4705 157.838 34.8783L149.018 39.7912C153.457 47.1259 156.122 55.3955 156.802 63.9418C156.904 65.1202 157.443 66.2178 158.315 67.0178C159.186 67.8179 160.325 68.2624 161.508 68.2638Z" fill="url(#paint8_linear_438_5841)"/>
<path d="M156.296 23.779C156.345 25.4749 156.053 27.1635 155.436 28.7442C154.819 30.3248 153.891 31.7654 152.707 32.9803C151.523 34.1951 150.106 35.1595 148.541 35.816C146.977 36.4725 145.296 36.8078 143.6 36.8019C136.29 36.9206 129.305 30.1421 129.279 22.921C129.249 16.1141 135.879 9.78069 143.13 9.63232C150.347 9.50846 156.239 15.8174 156.296 23.779Z" fill="url(#paint9_linear_438_5841)"/>
<path d="M0 200.442V176.084H5.65348V200.442H0Z" fill="#7FC243"/>
<path d="M31.3415 201.122L16.7213 187.597V200.472H11.1865V175.551H11.66L26.2815 189.227V176.114H31.8459V201.152H31.3428L31.3415 201.122Z" fill="#7FC243"/>
<path d="M44.515 200.797C42.5626 200.799 40.6334 200.375 38.8616 199.555C37.1427 198.808 35.681 197.573 34.6582 196.003L38.3287 192.54C39.1073 193.5 40.0872 194.278 41.1993 194.818C42.2773 195.424 43.4858 195.759 44.7215 195.795C45.6333 195.836 46.5402 195.642 47.356 195.233C47.6735 195.104 47.945 194.883 48.1351 194.597C48.3251 194.312 48.425 193.977 48.4217 193.634C48.4172 193.376 48.3468 193.124 48.2171 192.902C48.0875 192.679 47.9029 192.493 47.6811 192.362C47.0059 191.952 46.2792 191.634 45.5201 191.415L40.6368 189.905C39.1587 189.428 37.8319 188.571 36.7896 187.419C35.7807 186.278 35.249 184.793 35.3046 183.271C35.2848 182.206 35.5316 181.152 36.0226 180.205C36.5135 179.259 37.233 178.45 38.1158 177.853C39.9673 176.49 42.2099 175.764 44.5086 175.781C48.5339 175.781 51.5529 177.053 53.5398 179.628L49.5144 182.942C48.9247 182.227 48.1598 181.676 47.2941 181.344C46.4347 180.971 45.5074 180.779 44.5705 180.781C43.7947 180.778 43.0307 180.971 42.3502 181.344C42.0202 181.476 41.7384 181.705 41.5426 182.001C41.3468 182.298 41.2464 182.647 41.2548 183.002C41.2588 183.386 41.4065 183.754 41.6689 184.034C41.9037 184.304 42.1972 184.517 42.5269 184.656C42.8224 184.774 43.2081 184.922 43.7113 185.1L48.8913 186.698C50.4579 187.15 51.8774 188.007 53.0056 189.184C53.9489 190.219 54.4668 191.572 54.4558 192.972C54.4474 194.054 54.1894 195.118 53.7017 196.084C53.2141 197.049 52.51 197.888 51.6445 198.537C49.5939 200.078 47.0793 200.876 44.515 200.797Z" fill="#7FC243"/>
<path d="M57.4175 200.442V176.084H63.071V200.442H57.4175Z" fill="#7FC243"/>
<path d="M87.5457 197.187C86.4279 198.365 85.0769 199.297 83.5788 199.924C82.0808 200.551 80.4685 200.859 78.8448 200.828C75.5181 200.806 72.3342 199.473 69.9846 197.118C67.635 194.763 66.3093 191.576 66.2954 188.249C66.2995 184.931 67.6193 181.75 69.9654 179.404C72.3114 177.058 75.4922 175.738 78.81 175.734C81.0147 175.725 83.1814 176.308 85.0841 177.422C86.9955 178.524 88.5869 180.105 89.7016 182.01L84.5809 184.821C83.9984 183.8 83.1756 182.936 82.1838 182.305C80.9278 181.535 79.4448 181.22 77.9841 181.414C76.5234 181.608 75.174 182.299 74.1628 183.371C72.9049 184.683 72.2139 186.437 72.2392 188.254C72.1912 190.123 72.8702 191.937 74.1331 193.315C74.72 193.982 75.4451 194.513 76.2579 194.87C77.0707 195.228 77.9517 195.405 78.8397 195.387C80.2907 195.425 81.7144 194.989 82.8947 194.144C84.01 193.361 84.7923 192.189 85.0879 190.859H78.8435V186.799H91.1259V188.279C91.1512 189.927 90.8475 191.564 90.2328 193.093C89.6181 194.623 88.7046 196.015 87.5457 197.187Z" fill="#7FC243"/>
<path d="M114.421 201.122L99.801 187.597V200.472H94.2661V175.551H94.7396L109.361 189.227V176.114H114.955V201.152H114.422L114.421 201.122Z" fill="#7FC243"/>
<path d="M119.541 200.442V176.084H125.194V200.442H119.541Z" fill="#7FC243"/>
<path d="M126.171 200.442L137.803 175.492H138.578L150.21 200.442H143.876L142.692 197.542H133.694L132.51 200.442H126.171ZM135.461 192.959H140.847L138.153 186.626L135.461 192.959Z" fill="url(#paint10_linear_438_5841)"/>
<path d="M151.653 200.442V176.084H162.279C164.333 176.091 166.301 176.91 167.754 178.363C169.207 179.815 170.026 181.784 170.033 183.838C170.026 185.892 169.207 187.86 167.754 189.313C166.301 190.765 164.333 191.585 162.279 191.592H157.33V200.441L151.653 200.442ZM157.33 186.236H161.74C162.376 186.236 162.985 185.984 163.435 185.534C163.884 185.085 164.137 184.475 164.137 183.839C164.137 183.203 163.884 182.594 163.435 182.144C162.985 181.695 162.376 181.442 161.74 181.442H157.33V186.236Z" fill="#6CB6D2"/>
<path d="M173.053 200.442V176.084H183.679C185.733 176.091 187.701 176.91 189.154 178.363C190.607 179.815 191.426 181.784 191.433 183.838C191.426 185.892 190.607 187.86 189.154 189.313C187.701 190.765 185.733 191.585 183.679 191.592H178.73V200.441L173.053 200.442ZM178.73 186.236H183.14C183.775 186.236 184.385 185.984 184.835 185.534C185.284 185.085 185.537 184.475 185.537 183.839C185.537 183.203 185.284 182.594 184.835 182.144C184.385 181.695 183.775 181.442 183.14 181.442H178.73V186.236Z" fill="#6CB6D2"/>
<defs>
<linearGradient id="paint0_linear_438_5841" x1="-32.7471" y1="-8.71077" x2="19.6646" y2="186.485" gradientUnits="userSpaceOnUse">
<stop stop-color="#6CB6D2"/>
<stop offset="1" stop-color="#7FC342"/>
</linearGradient>
<linearGradient id="paint1_linear_438_5841" x1="-14.5747" y1="-30.3443" x2="174.742" y2="116.07" gradientUnits="userSpaceOnUse">
<stop stop-color="#6CB6D2"/>
<stop offset="1" stop-color="#7FC342"/>
</linearGradient>
<linearGradient id="paint2_linear_438_5841" x1="5.43193" y1="-51.9984" x2="213.186" y2="41.6965" gradientUnits="userSpaceOnUse">
<stop stop-color="#6CB6D2"/>
<stop offset="1" stop-color="#7FC342"/>
</linearGradient>
<linearGradient id="paint3_linear_438_5841" x1="-33.6169" y1="-9.81276" x2="174.18" y2="84.5571" gradientUnits="userSpaceOnUse">
<stop stop-color="#6CB6D2"/>
<stop offset="1" stop-color="#7FC342"/>
</linearGradient>
<linearGradient id="paint4_linear_438_5841" x1="-33.0675" y1="-8.60958" x2="172.276" y2="46.3302" gradientUnits="userSpaceOnUse">
<stop stop-color="#6CB6D2"/>
<stop offset="1" stop-color="#7FC342"/>
</linearGradient>
<linearGradient id="paint5_linear_438_5841" x1="8.67758" y1="-53.7384" x2="70.8142" y2="145.197" gradientUnits="userSpaceOnUse">
<stop stop-color="#6CB6D2"/>
<stop offset="1" stop-color="#7FC342"/>
</linearGradient>
<linearGradient id="paint6_linear_438_5841" x1="-12.1398" y1="-31.2183" x2="163.331" y2="132.99" gradientUnits="userSpaceOnUse">
<stop stop-color="#6CB6D2"/>
<stop offset="1" stop-color="#7FC342"/>
</linearGradient>
<linearGradient id="paint7_linear_438_5841" x1="26.6054" y1="-73.086" x2="88.7263" y2="125.838" gradientUnits="userSpaceOnUse">
<stop stop-color="#6CB6D2"/>
<stop offset="1" stop-color="#7FC342"/>
</linearGradient>
<linearGradient id="paint8_linear_438_5841" x1="25.4409" y1="-71.8219" x2="230.785" y2="-16.8817" gradientUnits="userSpaceOnUse">
<stop stop-color="#6CB6D2"/>
<stop offset="1" stop-color="#7FC342"/>
</linearGradient>
<linearGradient id="paint9_linear_438_5841" x1="32.3755" y1="-79.3336" x2="209.649" y2="82.9418" gradientUnits="userSpaceOnUse">
<stop stop-color="#6CB6D2"/>
<stop offset="1" stop-color="#7FC342"/>
</linearGradient>
<linearGradient id="paint10_linear_438_5841" x1="149.657" y1="188.092" x2="132.037" y2="187.976" gradientUnits="userSpaceOnUse">
<stop stop-color="#6CB6D2"/>
<stop offset="1" stop-color="#7FC342"/>
</linearGradient>
</defs>
</svg>
