<svg width="37" height="37" viewBox="0 0 37 37" fill="none" xmlns="http://www.w3.org/2000/svg">
<path d="M18.1159 3.72021C9.79767 3.72021 3.01929 10.4986 3.01929 18.8168C3.01929 27.1351 9.79767 33.9135 18.1159 33.9135C26.4341 33.9135 33.2125 27.1351 33.2125 18.8168C33.2125 10.4986 26.4341 3.72021 18.1159 3.72021ZM23.1884 22.2891C23.6262 22.7269 23.6262 23.4515 23.1884 23.8893C22.9619 24.1157 22.6751 24.2214 22.3882 24.2214C22.1014 24.2214 21.8146 24.1157 21.5881 23.8893L18.1159 20.4171L14.6437 23.8893C14.4172 24.1157 14.1304 24.2214 13.8436 24.2214C13.5567 24.2214 13.2699 24.1157 13.0434 23.8893C12.6056 23.4515 12.6056 22.7269 13.0434 22.2891L16.5157 18.8168L13.0434 15.3446C12.6056 14.9068 12.6056 14.1822 13.0434 13.7444C13.4812 13.3066 14.2059 13.3066 14.6437 13.7444L18.1159 17.2166L21.5881 13.7444C22.0259 13.3066 22.7506 13.3066 23.1884 13.7444C23.6262 14.1822 23.6262 14.9068 23.1884 15.3446L19.7161 18.8168L23.1884 22.2891Z" fill="#525252"/>
</svg>
